<svg width="48" height="48" viewBox="0 0 48 48" fill="none" xmlns="http://www.w3.org/2000/svg">
<mask id="mask0_2_260" style="mask-type:alpha" maskUnits="userSpaceOnUse" x="0" y="0" width="48" height="48">
<rect width="48" height="48" fill="#D9D9D9"/>
</mask>
<g mask="url(#mask0_2_260)">
<path d="M24 44C21.2333 44 18.6333 43.475 16.2 42.425C13.7667 41.375 11.65 39.95 9.85 38.15C8.05 36.35 6.625 34.2333 5.575 31.8C4.525 29.3667 4 26.7667 4 24C4 21.2333 4.525 18.6333 5.575 16.2C6.625 13.7667 8.05 11.65 9.85 9.85C11.65 8.05 13.7667 6.625 16.2 5.575C18.6333 4.525 21.2333 4 24 4C26.7667 4 29.3667 4.525 31.8 5.575C34.2333 6.625 36.35 8.05 38.15 9.85C39.95 11.65 41.375 13.7667 42.425 16.2C43.475 18.6333 44 21.2333 44 24V26.9C44 28.8667 43.325 30.5417 41.975 31.925C40.625 33.3083 38.9667 34 37 34C35.8333 34 34.7333 33.75 33.7 33.25C32.6667 32.75 31.8 32.0333 31.1 31.1C30.1333 32.0667 29.0417 32.7917 27.825 33.275C26.6083 33.7583 25.3333 34 24 34C21.2333 34 18.875 33.025 16.925 31.075C14.975 29.125 14 26.7667 14 24C14 21.2333 14.975 18.875 16.925 16.925C18.875 14.975 21.2333 14 24 14C26.7667 14 29.125 14.975 31.075 16.925C33.025 18.875 34 21.2333 34 24V26.9C34 27.7667 34.2833 28.5 34.85 29.1C35.4167 29.7 36.1333 30 37 30C37.8667 30 38.5833 29.7 39.15 29.1C39.7167 28.5 40 27.7667 40 26.9V24C40 19.5333 38.45 15.75 35.35 12.65C32.25 9.55 28.4667 8 24 8C19.5333 8 15.75 9.55 12.65 12.65C9.55 15.75 8 19.5333 8 24C8 28.4667 9.55 32.25 12.65 35.35C15.75 38.45 19.5333 40 24 40H34V44H24ZM24 30C25.6667 30 27.0833 29.4167 28.25 28.25C29.4167 27.0833 30 25.6667 30 24C30 22.3333 29.4167 20.9167 28.25 19.75C27.0833 18.5833 25.6667 18 24 18C22.3333 18 20.9167 18.5833 19.75 19.75C18.5833 20.9167 18 22.3333 18 24C18 25.6667 18.5833 27.0833 19.75 28.25C20.9167 29.4167 22.3333 30 24 30Z" fill="#0067AC"/>
</g>
</svg>
