<svg width="256" height="256" viewBox="0 0 256 256" fill="none" xmlns="http://www.w3.org/2000/svg">
<path d="M57.4712 107.89V131.719C57.4712 132.105 57.3178 132.476 57.0446 132.749C56.7715 133.022 56.4011 133.175 56.0148 133.175H48.4926C48.1064 133.175 47.7361 133.022 47.463 132.749C47.1899 132.476 47.0364 132.105 47.0362 131.719V92.9601C47.0362 92.5738 47.1897 92.2034 47.4628 91.9303C47.7359 91.6571 48.1064 91.5037 48.4926 91.5037H55.4536C55.8398 91.5037 56.2103 91.6571 56.4834 91.9303C56.7565 92.2034 56.91 92.5738 56.91 92.9601V98.4184C56.91 98.4184 59.3983 90.6323 66.783 90.6323C66.783 90.6323 74.0875 89.7493 77.0574 97.8565C77.0574 97.8565 79.5458 90.6323 87.091 90.6323C87.091 90.6323 98.312 89.9651 98.312 101.576L98.3974 107.97V131.799C98.3974 132.186 98.244 132.556 97.9708 132.829C97.6977 133.102 97.3273 133.256 96.941 133.256H89.4182C89.032 133.256 88.6616 133.102 88.3886 132.829C88.1155 132.556 87.962 132.186 87.9618 131.799L87.8931 105.803C88.1069 99.9165 83.3447 100.345 83.3447 100.345C77.3515 100.452 77.9282 107.97 77.9282 107.97V131.799C77.9282 132.186 77.7748 132.556 77.5016 132.829C77.2285 133.102 76.8581 133.256 76.4718 133.256H68.9496C68.5634 133.256 68.1931 133.102 67.92 132.829C67.6469 132.556 67.4934 132.186 67.4932 131.799V106.391C67.4932 106.391 67.9331 100.291 62.5814 100.291C62.5821 100.291 57.2843 99.5954 57.4712 107.89ZM251.372 107.819V131.647C251.372 132.033 251.218 132.404 250.945 132.677C250.672 132.95 250.302 133.103 249.915 133.104L242.092 133.255C241.706 133.255 241.336 133.101 241.062 132.828C240.789 132.555 240.636 132.185 240.636 131.799V106.391C240.636 106.391 241.076 100.291 235.725 100.291C235.725 100.291 230.614 100.039 230.614 109.604V131.718C230.614 132.105 230.46 132.475 230.187 132.748C229.914 133.021 229.543 133.175 229.157 133.175H221.634C221.248 133.175 220.878 133.021 220.605 132.748C220.332 132.475 220.178 132.105 220.178 131.718V92.9601C220.178 92.5739 220.332 92.2035 220.605 91.9304C220.878 91.6574 221.248 91.5039 221.634 91.5037H228.595C228.982 91.5037 229.352 91.6571 229.625 91.9303C229.898 92.2034 230.052 92.5738 230.052 92.9601V98.4184C230.052 98.4184 232.54 90.6323 239.925 90.6323C239.925 90.6323 247.836 89.4321 250.5 97.7056C250.5 97.7049 251.372 99.4118 251.372 107.819ZM197.059 90.4717C187.439 90.4717 179.64 98.5789 179.64 112.225C179.64 124.239 185.661 133.977 197.059 133.977C207.815 133.977 214.477 124.239 214.477 112.225C214.477 98.8197 206.679 90.4717 197.059 90.4717ZM203.13 112.706C203.13 117.843 202.488 120.573 202.488 120.573C201.574 126.003 197.632 126.011 197.051 125.982C196.424 126.007 192.448 125.951 191.626 120.573C191.626 120.573 190.983 117.843 190.983 112.706V111.85C190.983 106.713 191.626 103.984 191.626 103.984C192.448 98.6059 196.424 98.5494 197.051 98.5738C197.632 98.5449 201.574 98.5519 202.488 103.984C202.488 103.984 203.13 106.713 203.13 111.85V112.706ZM175.274 98.3644V92.8034C175.274 92.4172 175.121 92.0468 174.848 91.7738C174.575 91.5007 174.204 91.3472 173.818 91.347H148.954C148.568 91.347 148.197 91.5004 147.924 91.7736C147.651 92.0467 147.498 92.4171 147.498 92.8034V98.3214C147.498 98.7076 147.651 99.078 147.924 99.351C148.197 99.6241 148.568 99.7776 148.954 99.7778H161.923L146.572 122.048C146.572 122.048 145.967 122.95 145.987 123.948V130.722C145.987 130.722 145.887 133.044 148.521 131.697C148.521 131.697 153.2 128.87 161.045 128.87C161.045 128.87 168.793 128.773 173.958 131.94C173.958 131.94 176.102 132.915 176.102 130.771V124.875C176.102 124.875 176.297 123.315 174.25 122.34C174.25 122.34 168.305 119.076 160.509 119.611L175.274 98.3644ZM41.2306 126.244L38.8758 122.66C38.1264 121.321 38.1803 119.823 38.1803 119.823V103.288C38.5014 88.9999 22.6615 90.2309 22.6615 90.2309C8.5804 90.2309 6.50048 101.189 6.50048 101.189C5.91355 103.392 7.62039 103.446 7.62039 103.446L14.501 104.144C14.501 104.144 15.6742 104.412 16.1013 103.016C16.1013 103.016 17.0073 98.2347 22.0746 98.2347C27.5881 98.2347 27.5309 102.967 27.5309 102.967V106.928C16.5245 107.296 11.4238 110.351 11.4238 110.351C4.62797 114.204 5.05564 121.857 5.05564 121.857C5.05564 134.325 16.9354 133.789 16.9354 133.789C24.534 133.789 29.0291 128.224 29.0291 128.224C30.3667 130.58 32.8287 132.826 32.8287 132.826C34.0603 134.162 35.344 133.041 35.344 133.041L40.9095 128.278C42.1398 127.368 41.2306 126.244 41.2306 126.244ZM20.6438 126.09C17.0696 126.09 15.741 122.538 16.3344 119.047C16.9284 115.557 20.0133 112.813 27.5316 112.894V115.016C27.7981 124.287 23.6189 126.09 20.6438 126.09ZM141.192 126.244L138.837 122.66C138.088 121.321 138.141 119.823 138.141 119.823V103.288C138.462 88.9999 122.623 90.2309 122.623 90.2309C108.541 90.2309 106.462 101.189 106.462 101.189C105.875 103.392 107.581 103.446 107.581 103.446L114.462 104.144C114.462 104.144 115.635 104.412 116.062 103.016C116.062 103.016 116.968 98.2347 122.036 98.2347C127.549 98.2347 127.492 102.967 127.492 102.967V106.928C116.486 107.296 111.385 110.351 111.385 110.351C104.589 114.204 105.017 121.857 105.017 121.857C105.017 134.325 116.896 133.789 116.896 133.789C124.495 133.789 128.99 128.224 128.99 128.224C130.328 130.58 132.789 132.826 132.789 132.826C134.021 134.162 135.305 133.041 135.305 133.041L140.87 128.278C142.101 127.368 141.192 126.244 141.192 126.244ZM120.605 126.09C117.031 126.09 115.702 122.538 116.295 119.047C116.889 115.557 119.974 112.813 127.492 112.894V115.016C127.759 124.287 123.581 126.09 120.605 126.09Z" fill="black"/>
<path d="M160.133 157.541C160.133 157.541 159.503 158.636 160.277 158.881C160.277 158.881 161.15 159.222 162.239 158.211C162.239 158.211 170.182 151.273 170.373 138.64C170.373 138.64 170.431 137.063 169.798 136.631C169.798 136.631 167.31 134.43 158.362 135.099C158.362 135.099 150.563 135.626 146.305 139.406C146.305 139.406 145.922 139.741 145.922 140.171C145.922 140.171 145.83 141.1 148.171 140.698C148.171 140.698 155.97 139.596 160.611 140.171C160.611 140.171 163.004 140.458 163.674 141.272C163.674 141.272 164.775 142.182 164.2 145.195C164.2 145.197 162.62 152.852 160.133 157.541Z" fill="#F3971B"/>
<path d="M158.56 145.422C158.56 145.422 159.725 146.931 157.845 148.233C157.845 148.233 137.767 164.293 104.054 164.293C104.054 164.293 69.3512 166.005 40.3741 139.677C40.3741 139.677 39.3582 138.785 39.9888 137.956C39.9888 137.956 40.5526 137.193 42.0122 138.022C42.0122 138.022 69.2709 155.008 105.071 155.008C105.071 155.008 129.954 155.971 155.48 145.055C155.48 145.055 157.513 144.001 158.56 145.422Z" fill="#F3971B"/>
</svg>
