<svg width="48" height="48" viewBox="0 0 48 48" fill="none" xmlns="http://www.w3.org/2000/svg">
<mask id="mask0_40_124" style="mask-type:alpha" maskUnits="userSpaceOnUse" x="0" y="0" width="48" height="48">
<rect width="48" height="48" fill="#D9D9D9"/>
</mask>
<g mask="url(#mask0_40_124)">
<path d="M39.9 42C35.7333 42 31.6167 41.0917 27.55 39.275C23.4833 37.4583 19.7833 34.8833 16.45 31.55C13.1167 28.2167 10.5417 24.5167 8.725 20.45C6.90833 16.3833 6 12.2667 6 8.1C6 7.5 6.2 7 6.6 6.6C7 6.2 7.5 6 8.1 6H16.2C16.6667 6 17.0833 6.15833 17.45 6.475C17.8167 6.79167 18.0333 7.16667 18.1 7.6L19.4 14.6C19.4667 15.1333 19.45 15.5833 19.35 15.95C19.25 16.3167 19.0667 16.6333 18.8 16.9L13.95 21.8C14.6167 23.0333 15.4083 24.225 16.325 25.375C17.2417 26.525 18.25 27.6333 19.35 28.7C20.3833 29.7333 21.4667 30.6917 22.6 31.575C23.7333 32.4583 24.9333 33.2667 26.2 34L30.9 29.3C31.2 29 31.5917 28.775 32.075 28.625C32.5583 28.475 33.0333 28.4333 33.5 28.5L40.4 29.9C40.8667 30.0333 41.25 30.275 41.55 30.625C41.85 30.975 42 31.3667 42 31.8V39.9C42 40.5 41.8 41 41.4 41.4C41 41.8 40.5 42 39.9 42ZM12.05 18L15.35 14.7L14.5 10H10.05C10.2167 11.3667 10.45 12.7167 10.75 14.05C11.05 15.3833 11.4833 16.7 12.05 18ZM29.95 35.9C31.25 36.4667 32.575 36.9167 33.925 37.25C35.275 37.5833 36.6333 37.8 38 37.9V33.5L33.3 32.55L29.95 35.9Z" fill="#0067AC"/>
</g>
</svg>
