<svg width="256" height="256" viewBox="0 0 256 256" fill="none" xmlns="http://www.w3.org/2000/svg">
<g clip-path="url(#clip0_40_162)">
<path d="M121.076 91.9336V117.595H136.906C140.676 117.595 143.794 116.331 146.257 113.796C148.792 111.268 150.056 108.251 150.056 104.761C150.056 101.27 148.792 98.3616 146.257 95.8263C143.786 93.2263 140.669 91.9264 136.906 91.9264H121.076V91.9336ZM121.076 126.638V156.408H111.625V82.8984H136.698C143.068 82.8984 148.469 85.0243 152.929 89.2618C157.461 93.4993 159.716 98.6704 159.716 104.761C159.716 110.851 157.461 116.195 152.929 120.36C148.548 124.54 143.133 126.623 136.698 126.623H121.076V126.638ZM169.269 140.995C169.269 143.465 170.31 145.512 172.407 147.157C174.497 148.795 176.946 149.62 179.754 149.62C183.733 149.62 187.267 148.148 190.384 145.211C193.501 142.266 195.06 138.811 195.06 134.847C192.115 132.513 188 131.356 182.728 131.356C178.893 131.356 175.689 132.283 173.125 134.129C170.561 135.974 169.269 138.258 169.269 140.995ZM181.5 104.452C188.488 104.452 194.004 106.312 198.047 110.047C202.091 113.782 204.102 118.888 204.102 125.388V156.393H195.06V149.412H194.65C190.743 155.158 185.543 158.031 179.036 158.031C173.484 158.031 168.838 156.393 165.11 153.111C161.375 149.822 159.508 145.721 159.508 140.786C159.508 135.587 161.469 131.45 165.412 128.376C169.355 125.295 174.612 123.758 181.184 123.758C186.8 123.758 191.425 124.785 195.052 126.839V124.684C195.052 121.402 193.752 118.615 191.153 116.324C188.545 114.026 185.507 112.884 182.01 112.884C176.731 112.884 172.558 115.103 169.477 119.556L161.146 114.32C165.742 107.749 172.522 104.466 181.5 104.466M256 106.097L224.449 178.564H214.688L226.402 153.212L205.646 106.097H215.924L230.927 142.23H231.128L245.722 106.097H256Z" fill="#5F6368"/>
<path d="M82.8745 120.21C82.8745 117.237 82.6231 114.364 82.1491 111.62H42.2739V127.888H65.1059C64.1292 133.188 61.1629 137.698 56.6669 140.722V151.287H70.2986C78.278 143.933 82.8745 133.066 82.8745 120.217" fill="#4285F4"/>
<path d="M42.2738 161.485C53.6862 161.485 63.2887 157.743 70.2985 151.287L56.6668 140.722C52.8746 143.271 47.9908 144.765 42.2738 144.765C31.2492 144.765 21.8909 137.339 18.5368 127.334H4.50293V138.215C11.4624 152.012 25.762 161.492 42.281 161.492" fill="#34A853"/>
<path d="M18.5443 127.327C17.6896 124.778 17.2156 122.056 17.2156 119.247C17.2156 116.439 17.6824 113.717 18.5443 111.168V100.287H4.5032C1.62316 105.989 0 112.424 0 119.247C0 126.07 1.62316 132.513 4.5032 138.208L18.5443 127.327Z" fill="#FABB05"/>
<path d="M42.2738 93.7294C48.5007 93.7294 54.0884 95.8697 58.491 100.064C62.8937 104.258 70.557 88.0124 70.557 88.0124C63.2312 81.2038 53.679 77.0166 42.2738 77.0166C25.762 77.0166 11.4624 86.4898 4.50293 100.287L18.544 111.168C21.8909 101.163 31.2492 93.7366 42.2809 93.7366" fill="#E94235"/>
</g>
<defs>
<clipPath id="clip0_40_162">
<rect width="256" height="101.581" fill="white" transform="translate(0 77)"/>
</clipPath>
</defs>
</svg>
