<svg width="48" height="48" viewBox="0 0 48 48" fill="none" xmlns="http://www.w3.org/2000/svg">
<mask id="mask0_2_243" style="mask-type:alpha" maskUnits="userSpaceOnUse" x="0" y="0" width="48" height="48">
<rect width="48" height="48" fill="#D9D9D9"/>
</mask>
<g mask="url(#mask0_2_243)">
<path d="M24 46V42H38V40H30V24H38V22C38 18.1333 36.6333 14.8333 33.9 12.1C31.1667 9.36667 27.8667 8 24 8C20.1333 8 16.8333 9.36667 14.1 12.1C11.3667 14.8333 10 18.1333 10 22V24H18V40H10C8.9 40 7.95833 39.6083 7.175 38.825C6.39167 38.0417 6 37.1 6 36V22C6 19.5333 6.475 17.2083 7.425 15.025C8.375 12.8417 9.66667 10.9333 11.3 9.3C12.9333 7.66667 14.8417 6.375 17.025 5.425C19.2083 4.475 21.5333 4 24 4C26.4667 4 28.7917 4.475 30.975 5.425C33.1583 6.375 35.0667 7.66667 36.7 9.3C38.3333 10.9333 39.625 12.8417 40.575 15.025C41.525 17.2083 42 19.5333 42 22V42C42 43.1 41.6083 44.0417 40.825 44.825C40.0417 45.6083 39.1 46 38 46H24ZM10 36H14V28H10V36ZM34 36H38V28H34V36Z" fill="#0067AC"/>
</g>
</svg>
