<svg width="48" height="48" viewBox="0 0 48 48" fill="none" xmlns="http://www.w3.org/2000/svg">
<mask id="mask0_40_130" style="mask-type:alpha" maskUnits="userSpaceOnUse" x="0" y="0" width="48" height="48">
<rect width="48" height="48" fill="#D9D9D9"/>
</mask>
<g mask="url(#mask0_40_130)">
<path d="M4 40V20C4 18.9 4.39167 17.9583 5.175 17.175C5.95833 16.3917 6.9 16 8 16H14V12C14 10.9 14.3917 9.95833 15.175 9.175C15.9583 8.39167 16.9 8 18 8H30C31.1 8 32.0417 8.39167 32.825 9.175C33.6083 9.95833 34 10.9 34 12V16H40C41.1 16 42.0417 16.3917 42.825 17.175C43.6083 17.9583 44 18.9 44 20V40H4ZM16 30V32H12V30H8V36H40V30H36V32H32V30H16ZM8 20V26H12V24H16V26H32V24H36V26H40V20H8ZM18 16H30V12H18V16Z" fill="#0067AC"/>
</g>
</svg>
