<svg width="48" height="48" viewBox="0 0 48 48" fill="none" xmlns="http://www.w3.org/2000/svg">
<mask id="mask0_40_136" style="mask-type:alpha" maskUnits="userSpaceOnUse" x="0" y="0" width="48" height="48">
<rect width="48" height="48" fill="#D9D9D9"/>
</mask>
<g mask="url(#mask0_40_136)">
<path d="M20 44V40H46V44H20ZM22 38C22 35.3 22.85 32.9417 24.55 30.925C26.25 28.9083 28.4 27.6667 31 27.2V25.95C31 25.3833 31.1917 24.9083 31.575 24.525C31.9583 24.1417 32.4333 23.95 33 23.95C33.5667 23.95 34.0417 24.1417 34.425 24.525C34.8083 24.9083 35 25.3833 35 25.95V27.2C37.5667 27.6667 39.7083 28.9083 41.425 30.925C43.1417 32.9417 44 35.3 44 38H22ZM27.25 33.95H38.65C38.0167 33.05 37.2083 32.325 36.225 31.775C35.2417 31.225 34.1667 30.95 33 30.95C31.8 30.95 30.7 31.225 29.7 31.775C28.7 32.325 27.8833 33.05 27.25 33.95ZM2 26V4H14V6.9L28 3L44 8V10C44 11.6667 43.4167 13.0833 42.25 14.25C41.0833 15.4167 39.6667 16 38 16H34V17.2C34 18.0333 33.7583 18.7917 33.275 19.475C32.7917 20.1583 32.1667 20.65 31.4 20.95L17.9 26H2ZM6 22H10V8H6V22ZM14 22H17.2L28.8 17.75C29.1667 17.6167 29.4583 17.3917 29.675 17.075C29.8917 16.7583 30 16.4 30 16H26.45L20.6 17.9L19.4 14.1L25.65 12H38C38.3 12 38.675 11.8917 39.125 11.675C39.575 11.4583 39.8 11.2 39.8 10.9L27.9 7.2L14 11V22Z" fill="#0067AC"/>
</g>
</svg>
