<svg width="256" height="256" viewBox="0 0 256 256" fill="none" xmlns="http://www.w3.org/2000/svg">
<g clip-path="url(#clip0_40_163)">
<path d="M255.136 111.689C252.812 105.045 246.479 100.274 239.042 100.274H238.886C234.051 100.274 229.692 102.286 226.591 105.517C223.484 102.286 219.126 100.274 214.296 100.274H214.14C209.889 100.274 206.004 101.831 203.02 104.406V103.096C202.918 101.792 201.845 100.767 200.52 100.767H189.11C187.715 100.767 186.588 101.894 186.588 103.294V165.252C186.588 166.653 187.716 167.779 189.11 167.779H200.52C201.791 167.779 202.838 166.829 203.005 165.6L203 121.122C203 120.966 203.005 120.822 203.021 120.676C203.204 118.691 204.658 117.06 206.956 116.855H209.059C210.019 116.941 210.83 117.279 211.468 117.789C212.462 118.577 213.013 119.791 213.013 121.122L213.056 165.381C213.056 166.782 214.189 167.914 215.579 167.914H226.988C228.335 167.914 229.43 166.841 229.495 165.505L229.49 121.063C229.485 119.603 230.16 118.283 231.346 117.5C231.931 117.124 232.634 116.872 233.444 116.796H235.548C238.016 117.011 239.508 118.884 239.503 121.063L239.546 165.263C239.546 166.664 240.679 167.791 242.068 167.791H253.478C254.867 167.791 256 166.663 256 165.263V117.726C256 114.484 255.635 113.105 255.136 111.689ZM177.895 100.928H171.369V90.3239C171.369 89.0521 170.339 88.022 169.068 88.022C168.917 88.022 168.773 88.0435 168.632 88.0701C161.398 90.0556 162.847 100.075 149.64 100.928H148.357C148.164 100.928 147.981 100.955 147.804 100.993H147.794L147.804 100.998C146.677 101.25 145.829 102.248 145.829 103.451V114.861C145.829 116.251 146.961 117.383 148.356 117.383H155.241L155.231 165.764C155.231 167.143 156.347 168.26 157.727 168.26H169.007C170.381 168.26 171.497 167.143 171.497 165.764L171.503 117.383H177.894C179.284 117.383 180.417 116.251 180.417 114.861V103.452C180.419 102.061 179.286 100.928 177.895 100.928Z" fill="#54C1F0"/>
<path d="M136.845 100.929H125.436C124.046 100.929 122.919 102.061 122.919 103.451V127.043C122.892 128.503 121.712 129.672 120.246 129.672H115.47C113.99 129.672 112.793 128.481 112.793 127L112.75 103.451C112.75 102.061 111.617 100.929 110.227 100.929H98.817C97.4213 100.929 96.2949 102.061 96.2949 103.451V129.308C96.2949 139.129 103.298 146.132 113.124 146.132C113.124 146.132 120.498 146.132 120.723 146.175C122.055 146.326 123.09 147.442 123.09 148.816C123.09 150.174 122.075 151.285 120.76 151.451C120.696 151.461 120.636 151.477 120.567 151.489L103.882 151.548C102.486 151.548 101.36 152.68 101.36 154.07V165.474C101.36 166.87 102.487 167.996 103.882 167.996H122.536C132.367 167.996 139.365 160.998 139.365 151.172V103.452C139.367 102.061 138.241 100.929 136.845 100.929ZM27.4125 100.927H2.47398C1.10592 100.927 0 102.037 0 103.4V114.58C0 114.601 0.00512 114.623 0.00512 114.644C0.00512 114.697 0 114.752 0 114.8V165.395C0 166.77 1.03014 167.891 2.3081 167.923H13.9325C15.3221 167.923 16.4547 166.795 16.4547 165.401L16.4977 148.061H27.4135C36.5476 148.061 42.9128 141.724 42.9128 132.552V116.458C42.9117 107.286 36.5466 100.927 27.4125 100.927ZM26.409 128.876C26.409 130.351 25.2119 131.553 23.7363 131.553L16.4966 131.558V117.45H23.7363C25.2119 117.45 26.409 118.641 26.409 120.122V128.876ZM71.935 100.991H56.1039C54.7031 100.991 53.5706 102.054 53.5706 103.357V107.796C53.5706 107.822 53.5757 107.855 53.5757 107.882C53.5757 107.913 53.5706 107.946 53.5706 107.978V114.058C53.5706 115.438 54.7727 116.564 56.2534 116.564H71.3288C72.5197 116.751 73.4648 117.621 73.599 118.979V120.449C73.4648 121.742 72.5309 122.687 71.3933 122.794H63.9283C53.9996 122.794 46.9268 129.39 46.9268 138.653V151.919C46.9268 161.127 53.0074 167.68 62.8654 167.68H83.5543C87.2684 167.68 90.2789 164.868 90.2789 161.406V118.116C90.2789 107.619 84.8691 100.991 71.935 100.991ZM73.7495 150.402C73.7495 150.548 73.728 150.687 73.7065 150.821C73.6796 150.947 73.6437 151.071 73.599 151.192C73.2447 152.19 72.2463 152.914 71.0605 152.914H66.3112C64.8305 152.914 63.6221 151.787 63.6221 150.402V148.25C63.6221 148.223 63.617 148.196 63.617 148.169L63.6221 142.443V140.651L63.6273 140.634C63.6324 139.255 64.8294 138.139 66.3101 138.139H71.0595C72.5463 138.139 73.7485 139.26 73.7485 140.651V150.402H73.7495Z" fill="#233266"/>
</g>
<defs>
<clipPath id="clip0_40_163">
<rect width="256" height="80.2816" fill="white" transform="translate(0 88)"/>
</clipPath>
</defs>
</svg>
