<svg width="256" height="256" viewBox="0 0 256 256" fill="none" xmlns="http://www.w3.org/2000/svg">
<g clip-path="url(#clip0_40_190)">
<path d="M175.795 147.629V135.005C175.795 131.899 174.63 130.345 171.717 130.345C170.552 130.345 169.193 130.54 168.416 130.733V149.182C168.416 149.765 167.833 150.347 167.25 150.347H162.784C162.201 150.347 161.618 149.765 161.618 149.182V127.626C161.618 126.849 162.201 126.267 162.784 126.073C165.697 125.102 168.609 124.519 171.716 124.519C178.707 124.519 182.591 128.209 182.591 135.006V149.377C182.591 149.959 182.009 150.542 181.426 150.542H178.707C176.96 150.541 175.795 149.182 175.795 147.629ZM193.273 140.055L193.078 141.803C193.078 144.134 194.632 145.492 197.156 145.492C199.097 145.492 200.845 144.91 202.788 143.939C202.983 143.939 203.176 143.744 203.371 143.744C203.759 143.744 203.953 143.939 204.148 144.133C204.342 144.327 204.731 144.91 204.731 144.91C205.119 145.492 205.508 146.269 205.508 146.851C205.508 147.822 204.925 148.793 204.149 149.182C202.013 150.347 199.489 150.93 196.77 150.93C193.663 150.93 191.138 150.153 189.196 148.599C187.255 146.851 186.089 144.522 186.089 141.608V134.035C186.089 128.014 189.973 124.325 196.576 124.325C202.985 124.325 206.674 127.821 206.674 134.035V138.695C206.674 139.278 206.092 139.86 205.509 139.86H193.275L193.273 140.055ZM193.078 135.783H200.457V133.841C200.457 131.51 199.098 129.957 196.768 129.957C194.437 129.957 193.078 131.316 193.078 133.841V135.783ZM242.599 140.055L242.404 141.803C242.404 144.134 243.958 145.492 246.482 145.492C248.424 145.492 250.172 144.91 252.114 143.939C252.309 143.939 252.502 143.744 252.697 143.744C253.085 143.744 253.279 143.939 253.474 144.133C253.669 144.327 254.057 144.91 254.057 144.91C254.445 145.492 254.834 146.269 254.834 146.851C254.834 147.822 254.251 148.793 253.475 149.182C251.339 150.347 248.815 150.93 246.096 150.93C242.989 150.93 240.464 150.153 238.522 148.599C236.581 146.851 235.415 144.522 235.415 141.608V134.035C235.415 128.014 239.299 124.325 245.902 124.325C252.311 124.325 256 127.821 256 134.035V138.695C256 139.278 255.418 139.86 254.835 139.86H242.601V140.055H242.599ZM242.404 135.783H249.783V133.841C249.783 131.51 248.425 129.957 246.094 129.957C243.763 129.957 242.404 131.316 242.404 133.841V135.783ZM128.217 150.541H130.936C131.518 150.541 132.101 149.958 132.101 149.376V135.005C132.101 128.403 128.605 124.518 122.779 124.518C121.031 124.518 119.09 124.907 117.924 125.296V118.11C117.924 116.557 116.565 115.197 115.011 115.197H112.292C111.71 115.197 111.127 115.779 111.127 116.362V149.376C111.127 149.958 111.71 150.541 112.292 150.541H116.759C117.342 150.541 117.924 149.958 117.924 149.376V131.121C118.895 130.733 120.255 130.539 121.226 130.539C124.139 130.539 125.303 131.898 125.303 135.199V147.822C125.498 149.182 126.663 150.541 128.217 150.541ZM157.541 134.228V141.414C157.541 147.434 153.463 151.124 146.666 151.124C140.063 151.124 135.79 147.434 135.79 141.414V134.228C135.79 128.208 139.868 124.518 146.666 124.518C153.463 124.518 157.541 128.209 157.541 134.228ZM150.744 134.228C150.744 131.898 149.385 130.344 146.86 130.344C144.335 130.344 142.976 131.703 142.976 134.228V141.414C142.976 143.744 144.335 145.103 146.86 145.103C149.385 145.103 150.744 143.744 150.744 141.414V134.228ZM107.438 130.928C107.438 137.143 102.778 141.415 96.5633 141.415C95.0099 141.415 93.65 141.22 92.2911 140.638V149.377C92.2911 149.959 91.7084 150.542 91.1258 150.542H86.659C86.0763 150.542 85.4937 149.959 85.4937 149.377V118.499C85.4937 117.722 86.0763 117.14 86.659 116.946C89.5723 115.975 92.4846 115.392 95.5915 115.392C102.583 115.392 107.437 119.665 107.437 126.267C107.438 126.266 107.438 130.928 107.438 130.928ZM100.447 125.878C100.447 122.771 98.3113 121.218 95.398 121.218C93.65 121.218 92.4846 121.801 92.4846 121.801V134.617C93.65 135.2 94.2326 135.395 95.5915 135.395C98.5049 135.395 100.641 133.647 100.641 130.734V125.879H100.447V125.878ZM232.889 130.928C232.889 137.143 228.229 141.415 222.014 141.415C220.461 141.415 219.101 141.22 217.742 140.638V149.377C217.742 149.959 217.159 150.542 216.576 150.542H212.11C211.527 150.542 210.944 149.959 210.944 149.377V118.499C210.944 117.722 211.527 117.14 212.11 116.946C215.023 115.975 217.935 115.392 221.042 115.392C228.033 115.392 232.888 119.665 232.888 126.267C232.889 126.266 232.889 130.928 232.889 130.928ZM225.898 125.878C225.898 122.771 223.762 121.218 220.849 121.218C219.101 121.218 217.935 121.801 217.935 121.801V134.617C219.101 135.2 219.683 135.395 221.042 135.395C223.956 135.395 226.092 133.647 226.092 130.734V125.879H225.898V125.878Z" fill="#5F259F"/>
<path d="M34.7614 162.526C53.9596 162.526 69.5228 146.963 69.5228 127.765C69.5228 108.567 53.9596 93.0034 34.7614 93.0034C15.5632 93.0034 0 108.567 0 127.765C0 146.963 15.5632 162.526 34.7614 162.526Z" fill="#5F259F"/>
<path d="M50.5383 118.693C50.5383 117.334 49.373 116.169 48.0141 116.169H43.3538L32.6732 103.935C31.7025 102.769 30.149 102.381 28.5956 102.769L24.906 103.935C24.3234 104.129 24.1288 104.905 24.5179 105.294L36.1692 116.363H18.4957C17.913 116.363 17.5249 116.751 17.5249 117.334V119.275C17.5249 120.634 18.6902 121.8 20.0491 121.8H22.7679V131.121C22.7679 138.112 26.4574 142.191 32.6722 142.191C34.6138 142.191 36.1682 141.996 38.1098 141.22V147.435C38.1098 149.183 39.4686 150.542 41.2166 150.542H43.9354C44.5181 150.542 45.1008 149.959 45.1008 149.377V121.606H49.5675C50.1502 121.606 50.5383 121.218 50.5383 120.635V118.693ZM38.1098 135.394C36.9444 135.976 35.391 136.171 34.2257 136.171C31.1188 136.171 29.5653 134.617 29.5653 131.121V121.8H38.1098V135.394Z" fill="white"/>
</g>
<defs>
<clipPath id="clip0_40_190">
<rect width="256" height="69.5296" fill="white" transform="translate(0 93)"/>
</clipPath>
</defs>
</svg>
