<svg width="256" height="256" viewBox="0 0 256 256" fill="none" xmlns="http://www.w3.org/2000/svg">
<mask id="mask0_40_200" style="mask-type:alpha" maskUnits="userSpaceOnUse" x="64" y="64" width="128" height="128">
<rect x="64" y="64" width="128" height="128" fill="#D9D9D9"/>
</mask>
<g mask="url(#mask0_40_200)">
<path d="M170.4 176C159.289 176 148.311 173.578 137.467 168.733C126.622 163.889 116.756 157.022 107.867 148.133C98.9778 139.244 92.1111 129.378 87.2667 118.533C82.4222 107.689 80 96.7111 80 85.6C80 84 80.5333 82.6667 81.6 81.6C82.6667 80.5333 84 80 85.6 80H107.2C108.444 80 109.556 80.4222 110.533 81.2667C111.511 82.1111 112.089 83.1111 112.267 84.2667L115.733 102.933C115.911 104.356 115.867 105.556 115.6 106.533C115.333 107.511 114.844 108.356 114.133 109.067L101.2 122.133C102.978 125.422 105.089 128.6 107.533 131.667C109.978 134.733 112.667 137.689 115.6 140.533C118.356 143.289 121.244 145.844 124.267 148.2C127.289 150.556 130.489 152.711 133.867 154.667L146.4 142.133C147.2 141.333 148.244 140.733 149.533 140.333C150.822 139.933 152.089 139.822 153.333 140L171.733 143.733C172.978 144.089 174 144.733 174.8 145.667C175.6 146.6 176 147.644 176 148.8V170.4C176 172 175.467 173.333 174.4 174.4C173.333 175.467 172 176 170.4 176ZM96.1333 112L104.933 103.2L102.667 90.6667H90.8C91.2444 94.3111 91.8667 97.9111 92.6667 101.467C93.4667 105.022 94.6222 108.533 96.1333 112ZM143.867 159.733C147.333 161.244 150.867 162.444 154.467 163.333C158.067 164.222 161.689 164.8 165.333 165.067V153.333L152.8 150.8L143.867 159.733Z" fill="#0067AC"/>
</g>
</svg>
