<svg width="48" height="48" viewBox="0 0 48 48" fill="none" xmlns="http://www.w3.org/2000/svg">
<mask id="mask0_40_104" style="mask-type:alpha" maskUnits="userSpaceOnUse" x="0" y="0" width="48" height="48">
<rect width="48" height="48" fill="#D9D9D9"/>
</mask>
<g mask="url(#mask0_40_104)">
<path d="M10 42C8.9 42 7.95833 41.6083 7.175 40.825C6.39167 40.0417 6 39.1 6 38V10C6 8.9 6.39167 7.95833 7.175 7.175C7.95833 6.39167 8.9 6 10 6H38C39.1 6 40.0417 6.39167 40.825 7.175C41.6083 7.95833 42 8.9 42 10V15H38V10H10V38H38V33H42V38C42 39.1 41.6083 40.0417 40.825 40.825C40.0417 41.6083 39.1 42 38 42H10ZM26 34C24.9 34 23.9583 33.6083 23.175 32.825C22.3917 32.0417 22 31.1 22 30V18C22 16.9 22.3917 15.9583 23.175 15.175C23.9583 14.3917 24.9 14 26 14H40C41.1 14 42.0417 14.3917 42.825 15.175C43.6083 15.9583 44 16.9 44 18V30C44 31.1 43.6083 32.0417 42.825 32.825C42.0417 33.6083 41.1 34 40 34H26ZM40 30V18H26V30H40ZM32 27C32.8333 27 33.5417 26.7083 34.125 26.125C34.7083 25.5417 35 24.8333 35 24C35 23.1667 34.7083 22.4583 34.125 21.875C33.5417 21.2917 32.8333 21 32 21C31.1667 21 30.4583 21.2917 29.875 21.875C29.2917 22.4583 29 23.1667 29 24C29 24.8333 29.2917 25.5417 29.875 26.125C30.4583 26.7083 31.1667 27 32 27Z" fill="#0067AC"/>
</g>
</svg>
