<svg width="256" height="256" viewBox="0 0 256 256" fill="none" xmlns="http://www.w3.org/2000/svg">
<g clip-path="url(#clip0_40_174)">
<path d="M97.3635 174.495L99.4336 175.53C107.875 180.551 117.525 183.175 127.346 183.12C157.58 183.051 182.422 158.151 182.422 127.917C182.422 113.305 176.618 99.2731 166.299 88.9293C155.993 78.4786 141.913 72.5891 127.239 72.5891C97.1426 72.5891 72.3804 97.3548 72.3804 127.448C72.3804 127.686 72.3804 127.92 72.3838 128.158C72.4745 138.39 75.3361 148.405 80.6644 157.14L82.0444 159.21L76.5241 179.567L97.3635 174.495Z" fill="#00E676"/>
<path d="M172.44 82.719C160.692 70.7329 144.576 64.0085 127.794 64.0876H127.687C93.1266 64.0877 64.6864 92.528 64.6864 127.089C64.6864 127.251 64.6899 127.41 64.6899 127.572C64.8201 138.56 67.6646 149.346 72.9704 158.969L63.9998 191.746L97.4324 183.12C106.668 188.191 117.052 190.805 127.587 190.711C162.276 190.521 190.712 161.919 190.692 127.227C190.775 110.559 184.202 94.5291 172.44 82.719ZM127.794 180.015C118.455 180.064 109.28 177.558 101.262 172.77L99.192 171.735L79.2842 176.91L84.4595 157.244L83.0795 155.174C77.9531 146.896 75.2372 137.353 75.2371 127.617C75.2371 98.904 98.8642 75.2767 127.577 75.2767C156.29 75.2767 179.917 98.904 179.917 127.617C179.917 145.696 170.549 162.54 155.189 172.08C147.065 177.284 137.615 180.039 127.967 180.015M158.294 141.718L154.499 139.993C154.499 139.993 148.979 137.577 145.528 135.852C145.183 135.852 144.838 135.507 144.493 135.507C143.643 135.528 142.811 135.766 142.078 136.197C141.343 136.629 141.733 136.542 136.903 142.063C136.575 142.708 135.902 143.112 135.178 143.098H134.833C134.314 143.011 133.833 142.771 133.453 142.408L131.728 141.718C128.026 140.151 124.637 137.93 121.722 135.162C121.032 134.472 119.997 133.782 119.307 133.092C116.753 130.645 114.547 127.859 112.751 124.812L112.406 124.122C112.107 123.7 111.874 123.234 111.716 122.741C111.626 122.144 111.748 121.533 112.061 121.016C112.375 120.499 113.441 119.291 114.476 118.256C115.512 117.221 115.512 116.531 116.202 115.841C116.556 115.349 116.801 114.786 116.92 114.191C117.039 113.596 117.029 112.982 116.892 112.391C115.284 107.926 113.441 103.55 111.371 99.28C110.816 98.4172 109.952 97.7999 108.956 97.5549H105.161C104.471 97.5549 103.781 97.8999 103.091 97.8999L102.746 98.2449C102.056 98.5899 101.366 99.28 100.676 99.625C99.9855 99.97 99.6405 101.005 98.9505 101.695C96.5385 104.743 95.2039 108.504 95.1552 112.391C95.1934 115.125 95.78 117.823 96.8802 120.326L97.2254 121.361C100.323 127.985 104.656 133.957 109.991 138.958L111.371 140.338C112.376 141.169 113.3 142.094 114.131 143.098C121.28 149.319 129.771 153.804 138.938 156.209C139.974 156.554 141.354 156.554 142.389 156.899H145.839C147.642 156.81 149.406 156.339 151.014 155.519C151.859 155.136 152.667 154.673 153.429 154.139L154.119 153.448C154.81 152.758 155.5 152.413 156.19 151.723C156.864 151.123 157.445 150.425 157.915 149.653C158.577 148.108 159.043 146.486 159.295 144.823V142.408C158.985 142.129 158.636 141.897 158.26 141.718" fill="white"/>
</g>
<defs>
<clipPath id="clip0_40_174">
<rect width="127.041" height="128" fill="white" transform="translate(64 64)"/>
</clipPath>
</defs>
</svg>
